{
	"asset":{
		"generator":"Khronos glTF Blender I/O v4.4.56",
		"version":"2.0"
	},
	"scene":0,
	"scenes":[
		{
			"name":"Scene",
			"nodes":[
				0
			]
		}
	],
	"nodes":[
		{
			"mesh":0,
			"name":"Icosphere",
			"rotation":[
				0.4645565450191498,
				0.12096531689167023,
				-0.4013334810733795,
				0.7800551652908325
			],
			"translation":[
				0,
				0.8362004160881042,
				0
			]
		}
	],
	"materials":[
		{
			"doubleSided":true,
			"name":"white",
			"pbrMetallicRoughness":{
				"baseColorFactor":[
					0.4479791224002838,
					0.4479791224002838,
					0.4479791224002838,
					1
				],
				"metallicFactor":0,
				"roughnessFactor":0.3965517282485962
			}
		},
		{
			"doubleSided":true,
			"name":"black",
			"pbrMetallicRoughness":{
				"baseColorFactor":[
					0,
					0,
					0,
					1
				],
				"metallicFactor":0,
				"roughnessFactor":0.35057467222213745
			}
		}
	],
	"meshes":[
		{
			"name":"Icosphere.002",
			"primitives":[
				{
					"attributes":{
						"POSITION":0,
						"NORMAL":1,
						"TEXCOORD_0":2
					},
					"indices":3,
					"material":0
				},
				{
					"attributes":{
						"POSITION":4,
						"NORMAL":5,
						"TEXCOORD_0":6
					},
					"indices":7,
					"material":1
				}
			]
		}
	],
	"accessors":[
		{
			"bufferView":0,
			"componentType":5126,
			"count":8480,
			"max":[
				0.8376641273498535,
				0.7903314828872681,
				0.8351501226425171
			],
			"min":[
				-0.8376641273498535,
				-0.7903314828872681,
				-0.8351501226425171
			],
			"type":"VEC3"
		},
		{
			"bufferView":1,
			"componentType":5126,
			"count":8480,
			"type":"VEC3"
		},
		{
			"bufferView":2,
			"componentType":5126,
			"count":8480,
			"type":"VEC2"
		},
		{
			"bufferView":3,
			"componentType":5123,
			"count":14400,
			"type":"SCALAR"
		},
		{
			"bufferView":4,
			"componentType":5126,
			"count":4392,
			"max":[
				0.8142347931861877,
				0.8397861123085022,
				0.8085773587226868
			],
			"min":[
				-0.8142347931861877,
				-0.8397860527038574,
				-0.8085773587226868
			],
			"type":"VEC3"
		},
		{
			"bufferView":5,
			"componentType":5126,
			"count":4392,
			"type":"VEC3"
		},
		{
			"bufferView":6,
			"componentType":5126,
			"count":4392,
			"type":"VEC2"
		},
		{
			"bufferView":7,
			"componentType":5123,
			"count":7200,
			"type":"SCALAR"
		}
	],
	"bufferViews":[
		{
			"buffer":0,
			"byteLength":101760,
			"byteOffset":0,
			"target":34962
		},
		{
			"buffer":0,
			"byteLength":101760,
			"byteOffset":101760,
			"target":34962
		},
		{
			"buffer":0,
			"byteLength":67840,
			"byteOffset":203520,
			"target":34962
		},
		{
			"buffer":0,
			"byteLength":28800,
			"byteOffset":271360,
			"target":34963
		},
		{
			"buffer":0,
			"byteLength":52704,
			"byteOffset":300160,
			"target":34962
		},
		{
			"buffer":0,
			"byteLength":52704,
			"byteOffset":352864,
			"target":34962
		},
		{
			"buffer":0,
			"byteLength":35136,
			"byteOffset":405568,
			"target":34962
		},
		{
			"buffer":0,
			"byteLength":14400,
			"byteOffset":440704,
			"target":34963
		}
	],
	"buffers":[
		{
			"byteLength":455104,
			"uri":"uploads_files_2798297_Football.bin"
		}
	]
}
